<?xml version="1.0" standalone="no"?><!DOCTYPE svg PUBLIC "-//W3C//DTD SVG 1.1//EN" "http://www.w3.org/Graphics/SVG/1.1/DTD/svg11.dtd"><svg t="1701791883748" class="icon" viewBox="0 0 1024 1024" version="1.1" xmlns="http://www.w3.org/2000/svg" p-id="7808" xmlns:xlink="http://www.w3.org/1999/xlink" width="200" height="200"><path d="M506.496 494.08s-1.28 52.48 60.8 92.16h392.96c62.08-39.68 60.8-92.16 60.8-92.16 1.92-305.28-49.92-494.08-257.28-494.08-208 0-259.2 188.8-257.28 494.08z" fill="#CF8151" p-id="7809"></path><path d="M567.424 586.752c10.24 5.76 21.76 12.16 35.2 17.28h321.92c14.08-5.12 25.6-11.52 35.2-17.28-49.92-58.24-126.08-78.72-195.84-78.72s-146.56 20.48-196.48 78.72z" fill="#BD6E45" p-id="7810"></path><path d="M934.272 346.688v-71.04c0-3.2-1.28-5.76-3.2-7.68-1.92-1.92-4.48-2.56-7.68-2.56-37.76 1.28-165.12 0-231.68-70.4-5.12-5.12-14.08-3.84-16.64 2.56-10.24 22.4-33.92 62.08-76.16 80.64-3.2 1.92-5.76 5.76-5.76 9.6v58.88c0 94.08 76.16 174.72 170.24 174.72 94.72 0 170.88-80.64 170.88-174.72z" fill="#F0C69E" p-id="7811"></path><path d="M593.152 331.968v37.12c0 94.08 76.16 170.88 170.24 170.88 94.72 0 170.88-76.8 170.88-170.88v-37.12c0 94.08-76.16 170.24-170.88 170.24-94.08 0-170.24-76.16-170.24-170.24z" fill="#E6BA94" p-id="7812"></path><path d="M478.464 754.816h-403.84c-1.92 23.68-1.92 50.56 0 79.36h404.48c1.28-28.8 1.28-55.68-0.64-79.36z" fill="#26457D" p-id="7813"></path><path d="M109.184 892.544l14.72-18.56 17.92-32-17.92-32.64h-5.76c-21.76 0-39.68 13.44-47.36 32.64 0 32.64 16.64 50.56 38.4 50.56z" fill="#E2AE84" p-id="7814"></path><path d="M70.464 841.792a59.52 59.52 0 0 0-3.2 18.56c0 28.16 23.04 51.2 51.2 51.2 3.2 0 7.04-0.64 10.24-1.28l12.8-17.28-17.92-19.2c-1.92 0.64-3.2 0.64-5.12 0.64-21.76 0-40.32-13.44-48-32.64z" fill="#D7A379" p-id="7815"></path><path d="M434.752 809.344h-5.12l-17.92 32.64 17.92 32 14.72 18.56c21.76 0 38.4-17.92 38.4-50.56a51.648 51.648 0 0 0-48-32.64z" fill="#E2AE84" p-id="7816"></path><path d="M429.632 873.792l-17.92 19.2 12.8 17.28c3.2 0.64 7.04 1.28 10.24 1.28 28.16 0 51.2-23.04 51.2-51.2 0-6.4-1.28-12.8-3.2-18.56-7.68 19.2-26.24 32.64-48 32.64-1.28 0-3.2 0-5.12-0.64z" fill="#D7A379" p-id="7817"></path><path d="M274.624 736.768l-100.48 17.92c-29.44 48-50.56 55.04-50.56 55.04v40.96c0 84.48 68.48 155.52 152.96 155.52s152.96-71.04 152.96-155.52v-40.96s-21.12-7.04-49.92-55.04l-104.96-17.92z" fill="#F0C69E" p-id="7818"></path><path d="M123.584 833.792v37.12a152.96 152.96 0 1 0 305.92 0v-37.12a152.96 152.96 0 1 1-305.92 0z" fill="#E6BA94" p-id="7819"></path><path d="M276.8 539.648c-91.52 0-186.88 40.96-208 177.92l208 17.92 208-17.92c-21.12-136.96-116.48-177.92-208-177.92z" fill="#DC4955" p-id="7820"></path><path d="M76.032 754.752h135.68l65.28-17.92 64.64 17.92h135.68c5.76 0 10.88-5.12 10.24-10.88-0.64-8.96-1.92-17.28-3.2-26.24h-415.36c-1.28 8.96-2.56 17.28-3.2 26.24-0.64 5.76 4.48 10.88 10.24 10.88z" fill="#D82F3C" p-id="7821"></path><path d="M276.928 640.832c-35.2 0-63.36 27.52-65.28 61.44l65.28 17.92 64.64-17.92c-1.92-33.92-30.08-61.44-64.64-61.44z" fill="#26457D" p-id="7822"></path><path d="M276.864 735.68l64.64-17.92v-15.36h-129.92v15.36l65.28 17.92z" fill="#F6E080" p-id="7823"></path><path d="M211.584 754.752h129.92v-37.12h-129.92v37.12z" fill="#ECCD61" p-id="7824"></path><path d="M569.216 878.656s-43.52 21.76-41.6 102.4c53.12 8.32 84.48-39.68 74.24-89.6l-32.64-12.8z m194.752-339.008c-110.08 0-241.28 62.72-196.48 285.44h392.32c45.44-222.72-86.4-285.44-195.84-285.44z" fill="#CF8151" p-id="7825"></path><path d="M601.92 891.52c-7.04 51.84-51.2 78.72-74.24 89.6 0 8.96 1.28 19.2 2.56 30.08 1.28 6.4 8.32 10.88 14.72 7.68 26.24-12.16 85.12-47.36 75.52-119.68l-18.56-7.68z" fill="#BD6E45" p-id="7826"></path><path d="M599.552 881.024l16-18.56 17.28-15.36-17.28-46.08h-5.12c-21.12 0-39.04 12.8-46.08 30.72 0 20.48 14.08 49.28 35.2 49.28z" fill="#E2AE84" p-id="7827"></path><path d="M564.544 831.936c-2.56 5.76-3.84 12.16-3.84 18.56 0 27.52 22.4 49.28 49.28 49.28 3.84 0 7.04 0 10.24-0.64l17.28-20.48-22.4-16h-5.12c-20.48 0-38.4-12.8-45.44-30.72z" fill="#D7A379" p-id="7828"></path><path d="M999.744 981.056c1.92-80.64-42.24-102.4-42.24-102.4l-32 12.8c-10.24 49.92 21.12 97.92 74.24 89.6z" fill="#CF8151" p-id="7829"></path><path d="M982.144 1018.88c6.4 3.2 14.08-1.28 14.72-7.68 1.92-10.88 2.56-21.12 2.56-30.08-23.04-10.88-67.2-37.76-73.6-89.6l-18.56 7.68c-9.6 72.32 48.64 107.52 74.88 119.68z" fill="#BD6E45" p-id="7830"></path><path d="M917.056 801.024h-5.12l-17.28 46.08 17.28 15.36 16 18.56c20.48 0 35.2-28.8 35.2-49.28a49.92 49.92 0 0 0-46.08-30.72z" fill="#E2AE84" p-id="7831"></path><path d="M912.32 862.656l-22.4 16 17.28 20.48c3.2 0.64 6.4 0.64 10.24 0.64 26.88 0 49.28-21.76 49.28-49.28 0-6.4-1.28-12.8-3.84-18.56-7.04 17.92-24.96 30.72-45.44 30.72h-5.12z" fill="#D7A379" p-id="7832"></path><path d="M754.816 680.256c-53.12 81.92-139.52 120.96-139.52 120.96v41.6c0 81.92 66.56 148.48 148.48 148.48 81.92 0 148.48-66.56 148.48-148.48v-41.6s-87.04-39.04-140.16-120.96c-3.84-5.76-12.8-5.76-17.28 0z" fill="#F0C69E" p-id="7833"></path><path d="M615.296 823.616v37.12c0 81.92 66.56 148.48 148.48 148.48 81.92 0 148.48-66.56 148.48-148.48v-37.12c0 81.92-66.56 148.48-148.48 148.48-81.92 0-148.48-66.56-148.48-148.48z" fill="#E6BA94" p-id="7834"></path><path d="M389.76 62.08S367.36 0 264.32 0C165.76 0 103.68 30.08 17.92 16.64A10.24 10.24 0 0 0 6.4 26.24c-3.84 41.6-12.8 188.8 42.24 270.08l460.16 11.52C581.76 70.4 389.76 62.08 389.76 62.08z" fill="#26457D" p-id="7835"></path><path d="M48.704 295.936c4.48 6.4 8.96 12.8 14.72 18.56l67.84 1.28-24.96-52.48h-5.76c-23.04 0-42.88 13.44-51.84 32.64z m459.904 12.16a56.96 56.96 0 0 0-55.68-44.8h-5.76l-19.84 63.36 74.24 1.28c2.56-6.4 5.12-13.44 7.04-19.84z" fill="#21386B" p-id="7836"></path><path d="M87.488 396.48l18.56-19.84 32.64-15.36-32.64-60.8h-5.76c-24.96 0-46.08 16-53.76 38.4 0 28.8 16.64 57.6 40.96 57.6z" fill="#E2AE84" p-id="7837"></path><path d="M46.592 338.752a57.088 57.088 0 0 0 53.76 75.52c3.84 0 7.68-0.64 11.52-1.28l11.52-20.48-17.28-16c-1.92 0.64-3.84 0.64-5.76 0.64-24.96 0-46.08-16-53.76-38.4z" fill="#D7A379" p-id="7838"></path><path d="M452.928 300.48h-5.76l-32.64 60.8 32.64 15.36 18.56 19.84c24.96 0 40.96-28.8 40.96-57.6a56.768 56.768 0 0 0-53.76-38.4z" fill="#E2AE84" p-id="7839"></path><path d="M447.168 376.512l-17.28 16 11.52 20.48c3.84 0.64 7.68 1.28 11.52 1.28a57.088 57.088 0 0 0 53.76-75.52c-7.68 22.4-28.8 38.4-53.76 38.4-1.92 0-3.84 0-5.76-0.64z" fill="#D7A379" p-id="7840"></path><path d="M377.472 178.624c-2.56-5.12-7.68-7.68-12.8-6.4-131.2 43.52-211.84 13.44-243.2-3.84a10.368 10.368 0 0 0-15.36 8.96v169.6c0 94.08 76.16 174.72 170.24 174.72 94.72 0 170.88-80.64 170.88-174.72v-85.12a9.6 9.6 0 0 0-5.76-8.96c-39.68-21.76-57.6-57.6-64-74.24z" fill="#F0C69E" p-id="7841"></path><path d="M106.112 331.968v37.12c0 94.08 76.16 170.88 170.24 170.88 94.72 0 170.88-76.8 170.88-170.88v-37.12c0 94.08-76.16 170.24-170.88 170.24-94.08 0-170.24-76.16-170.24-170.24z" fill="#E6BA94" p-id="7842"></path><path d="M176 316.16v38.4a15.744 15.744 0 0 0 31.36 0v-38.4a15.744 15.744 0 0 0-31.36 0z m166.528 0v38.4a15.744 15.744 0 0 0 31.36 0v-38.4a15.744 15.744 0 0 0-31.36 0z m324.288 0v38.4a15.744 15.744 0 0 0 31.36 0v-38.4a15.744 15.744 0 0 0-31.36 0z m197.952 38.4v-38.4a15.744 15.744 0 0 0-31.36 0v38.4a15.744 15.744 0 0 0 31.36 0z m-680.32 469.76v34.56a15.744 15.744 0 0 0 31.36 0v-34.56a15.744 15.744 0 0 0-31.36 0z m149.568 0v34.56a15.744 15.744 0 0 0 31.36 0v-34.56a15.744 15.744 0 0 0-31.36 0z m343.68-8.704v33.28c0 8.96 7.04 16 15.36 16 8.96 0 16-7.04 16-16v-33.28a15.744 15.744 0 0 0-31.36 0z m144.832 0v33.28c0 8.96 7.04 16 15.36 16 8.96 0 16-7.04 16-16v-33.28a15.744 15.744 0 0 0-31.36 0z" fill="#5E6B75" p-id="7843"></path><path d="M784 902.656s-3.84 7.68-18.56 7.68c-14.08 0-17.92-7.68-17.92-7.68a15.808 15.808 0 0 0-20.48-8.32 15.36 15.36 0 0 0-8.32 19.84c3.84 10.24 18.56 26.88 46.72 26.88 28.8 0 43.52-16.64 47.36-26.88a15.36 15.36 0 0 0-8.32-19.84 15.808 15.808 0 0 0-20.48 8.32zM713.216 428.8c5.12 10.88 21.12 28.8 52.48 28.8 31.36 0 47.36-17.92 51.84-28.8 1.28-2.56 1.92-4.48 1.92-7.04 0-8.32-7.04-15.36-16-15.36-6.4 0-12.16 3.84-14.72 9.6 0 1.28-5.76 10.88-23.04 10.88-17.92 0-23.04-9.6-23.68-10.88a16.192 16.192 0 0 0-14.72-9.6c-8.32 0-15.36 7.04-15.36 15.36 0 2.56 0.64 4.48 1.28 7.04z m-390.08 497.088c0.64-1.92 1.28-3.84 1.28-6.4 0-8.32-7.04-15.36-15.36-15.36-6.4 0-12.16 3.84-14.72 9.6-0.64 1.28-4.48 8.96-19.2 8.96-14.72 0-19.2-7.68-19.84-8.96a16.192 16.192 0 0 0-14.72-9.6 15.552 15.552 0 0 0-14.08 21.76c4.48 10.24 19.2 27.52 48.64 27.52 28.8 0 43.52-17.28 48-27.52z m-10.304-519.296c-6.4 0-12.16 3.84-14.72 10.24-0.64 1.28-5.76 10.88-23.04 10.88-17.92 0-23.04-9.6-23.68-10.88-1.92-6.4-7.68-10.24-14.72-10.24-8.32 0-15.36 7.04-15.36 15.36 0 2.56 0.64 5.12 1.92 7.04 4.48 10.88 20.48 29.44 51.84 29.44 31.36 0 47.36-18.56 51.84-29.44 1.28-1.92 1.92-4.48 1.92-7.04 0-8.32-7.04-15.36-16-15.36z m-14.72 10.24" fill="#DC4955" p-id="7844"></path></svg>